<svg xmlns="http://www.w3.org/2000/svg" width="1000" height="84" viewBox="0 0 1000 84" role="img" aria-label="GitHub Pulse"><title>GitHub Pulse</title><defs><g id="n"><ellipse cx="0" cy="0" rx="5.5" ry="4" transform="rotate(-20)"/><rect x="4" y="-20" width="2" height="20"/><path d="M6 -20 q9 3 6 12 q-1 -6 -6 -7z"/></g><filter id="blur"><feGaussianBlur stdDeviation="5"/></filter><filter id="blur2"><feGaussianBlur stdDeviation="1.2"/></filter><linearGradient id="card" x1="0" y1="0" x2="1" y2="1"><stop offset="0" stop-color="#141A2E"/><stop offset="1" stop-color="#0B0F1C"/></linearGradient><linearGradient id="acc" x1="0" y1="0" x2="1" y2="0"><stop offset="0" stop-color="#FB923C"/><stop offset="1" stop-color="#F472B6"/></linearGradient></defs><rect width="1000" height="84" rx="6" fill="#080A14"/><g><animate attributeName="opacity" values="0;0;1" keyTimes="0;0.1667;1" dur="0.60s" fill="freeze"/><animateTransform attributeName="transform" type="translate" values="0 8;0 8;0 0" keyTimes="0;0.1667;1" dur="0.60s" fill="freeze"/><path d="M26 24 L36 14 H78 V56 L68 66 H26Z" fill="#FB923C" fill-opacity=".14" stroke="#FB923C" stroke-opacity=".8"/><g transform="translate(52,40)" stroke="#FB923C" stroke-width="2" fill="none" stroke-linecap="round" stroke-linejoin="round"><path d="M-12 12V0M-4 12V-8M4 12V-2M12 12V-12"/></g><text x="94" y="46" font-family="'Arial Black', 'Helvetica Neue', Impact, Arial, sans-serif" font-weight="700" font-size="26" letter-spacing="2" fill="#F8FAFC">GITHUB PULSE</text><path d="M94 52 h46 l-6 5 h-40z" fill="#FB923C"/><text x="94" y="68" font-family="-apple-system, 'Segoe UI', Helvetica, Arial, sans-serif" font-size="10.5" font-weight="700" letter-spacing="2" fill="#94A3B8">A GLIMPSE INTO MY JOURNEY.</text><text x="964" y="40" text-anchor="end" font-family="-apple-system, 'Segoe UI', Helvetica, Arial, sans-serif" font-size="10" letter-spacing="1.8" fill="#60A5FA">CONSISTENT STEPS.</text><text x="964" y="56" text-anchor="end" font-family="-apple-system, 'Segoe UI', Helvetica, Arial, sans-serif" font-size="10" letter-spacing="1.8" fill="#60A5FA">BEAUTIFUL THINGS.</text></g><rect x=".5" y=".5" width="999" height="83" rx="6" fill="none" stroke="#1E2540"/></svg>