<svg xmlns="http://www.w3.org/2000/svg" width="1200" height="330" viewBox="0 0 1200 330">
<defs>
<linearGradient id="bg" x1="0" x2="1"><stop offset="0" stop-color="#08111b"/><stop offset="1" stop-color="#0b1420"/></linearGradient>
<linearGradient id="warm" x1="0" x2="1"><stop offset="0" stop-color="#f3a64a"/><stop offset="1" stop-color="#4ba3ff"/></linearGradient>

</defs>
<rect width="1200" height="330" rx="28" fill="url(#bg)"/>

<circle cx="58" cy="54" r="28" fill="#0d1723" stroke="#f3a64a" stroke-width="2"/>
<text x="58" y="63" text-anchor="middle" fill="#f3a64a" font-size="28" font-family="Segoe UI Symbol,Arial">⚒</text>
<text x="104" y="52" fill="#eef4fb" font-size="34" font-weight="700" font-family="Segoe UI,Arial">My Instruments</text>
<text x="104" y="79" fill="#4ba3ff" font-size="13" letter-spacing="2" font-family="Segoe UI,Arial">THE TOOLS I USE TO BUILD, CREATE AND EXPLORE.</text>

<rect x="40" y="118" width="210" height="66" rx="15" fill="#0d1723" stroke="#26384a" stroke-width="2"/>
<text x="72" y="160" fill="#f3a64a" font-size="25" font-weight="700" font-family="Segoe UI Symbol,Arial">Py</text>
<text x="112" y="159" fill="#eef4fb" font-size="17" font-family="Segoe UI,Arial">Python</text>
<rect x="268" y="118" width="210" height="66" rx="15" fill="#0d1723" stroke="#26384a" stroke-width="2"/>
<text x="300" y="160" fill="#4ba3ff" font-size="25" font-weight="700" font-family="Segoe UI Symbol,Arial">TS</text>
<text x="340" y="159" fill="#eef4fb" font-size="17" font-family="Segoe UI,Arial">TypeScript</text>
<rect x="496" y="118" width="210" height="66" rx="15" fill="#0d1723" stroke="#26384a" stroke-width="2"/>
<text x="528" y="160" fill="#4dd0e1" font-size="25" font-weight="700" font-family="Segoe UI Symbol,Arial">⚛</text>
<text x="568" y="159" fill="#eef4fb" font-size="17" font-family="Segoe UI,Arial">React</text>
<rect x="724" y="118" width="210" height="66" rx="15" fill="#0d1723" stroke="#26384a" stroke-width="2"/>
<text x="756" y="160" fill="#53d18c" font-size="25" font-weight="700" font-family="Segoe UI Symbol,Arial">⚡</text>
<text x="796" y="159" fill="#eef4fb" font-size="17" font-family="Segoe UI,Arial">FastAPI</text>
<rect x="120" y="213" width="210" height="66" rx="15" fill="#0d1723" stroke="#26384a" stroke-width="2"/>
<text x="152" y="255" fill="#6aa7ff" font-size="25" font-weight="700" font-family="Segoe UI Symbol,Arial">PG</text>
<text x="192" y="254" fill="#eef4fb" font-size="17" font-family="Segoe UI,Arial">PostgreSQL</text>
<rect x="348" y="213" width="210" height="66" rx="15" fill="#0d1723" stroke="#26384a" stroke-width="2"/>
<text x="380" y="255" fill="#4ba3ff" font-size="25" font-weight="700" font-family="Segoe UI Symbol,Arial">🐳</text>
<text x="420" y="254" fill="#eef4fb" font-size="17" font-family="Segoe UI,Arial">Docker</text>
<rect x="576" y="213" width="250" height="66" rx="15" fill="#0d1723" stroke="#26384a" stroke-width="2"/>
<text x="608" y="255" fill="#6aa7ff" font-size="25" font-weight="700" font-family="Segoe UI Symbol,Arial">GH</text>
<text x="648" y="254" fill="#eef4fb" font-size="17" font-family="Segoe UI,Arial">GitHub Actions</text>
<rect x="844" y="213" width="210" height="66" rx="15" fill="#0d1723" stroke="#26384a" stroke-width="2"/>
<text x="876" y="255" fill="#f3a64a" font-size="25" font-weight="700" font-family="Segoe UI Symbol,Arial">C</text>
<text x="916" y="254" fill="#eef4fb" font-size="17" font-family="Segoe UI,Arial">Claude</text>
<rect x="120" y="308" width="210" height="66" rx="15" fill="#0d1723" stroke="#26384a" stroke-width="2"/>
<text x="152" y="350" fill="#4fd1a5" font-size="25" font-weight="700" font-family="Segoe UI Symbol,Arial">◎</text>
<text x="192" y="349" fill="#eef4fb" font-size="17" font-family="Segoe UI,Arial">OpenAI</text>
</svg>